<mxfile host="app.diagrams.net" modified="2023-03-09T15:34:04.635Z" agent="5.0 (Macintosh)" etag="dhmWC-CeNxV8OCggksH3" version="21.0.4" type="github">
  <diagram name="Page-1" id="qqSUvRlL1jouoJkQ_yMf">
    <mxGraphModel dx="1553" dy="879" grid="1" gridSize="10" guides="1" tooltips="1" connect="1" arrows="1" fold="1" page="1" pageScale="1" pageWidth="850" pageHeight="1100" math="0" shadow="0">
      <root>
        <mxCell id="0" />
        <mxCell id="1" parent="0" />
        <mxCell id="-PqFsse7ZjnduNT8ml-g-17" value="" style="group" vertex="1" connectable="0" parent="1">
          <mxGeometry x="290" y="400" width="100" height="80" as="geometry" />
        </mxCell>
        <mxCell id="-PqFsse7ZjnduNT8ml-g-15" value="" style="aspect=fixed;html=1;points=[];align=center;image;fontSize=12;image=img/lib/azure2/general/Browser.svg;" vertex="1" parent="-PqFsse7ZjnduNT8ml-g-17">
          <mxGeometry width="100" height="80" as="geometry" />
        </mxCell>
        <mxCell id="-PqFsse7ZjnduNT8ml-g-16" value="dApp" style="text;html=1;strokeColor=none;fillColor=none;align=center;verticalAlign=middle;whiteSpace=wrap;rounded=0;fontColor=#000000;" vertex="1" parent="-PqFsse7ZjnduNT8ml-g-17">
          <mxGeometry x="20" y="34" width="60" height="30" as="geometry" />
        </mxCell>
        <mxCell id="-PqFsse7ZjnduNT8ml-g-19" value="Blockchain (Ethereum &amp;amp; BSC)" style="swimlane;whiteSpace=wrap;html=1;" vertex="1" parent="1">
          <mxGeometry x="190" y="160" width="370" height="170" as="geometry" />
        </mxCell>
        <mxCell id="-PqFsse7ZjnduNT8ml-g-26" value="&lt;i&gt;Emits&lt;/i&gt;" style="edgeStyle=orthogonalEdgeStyle;rounded=0;orthogonalLoop=1;jettySize=auto;html=1;" edge="1" parent="-PqFsse7ZjnduNT8ml-g-19" source="-PqFsse7ZjnduNT8ml-g-22" target="-PqFsse7ZjnduNT8ml-g-25">
          <mxGeometry relative="1" as="geometry" />
        </mxCell>
        <mxCell id="-PqFsse7ZjnduNT8ml-g-22" value="Smart Contract" style="shape=note;whiteSpace=wrap;html=1;backgroundOutline=1;darkOpacity=0.05;size=18;" vertex="1" parent="-PqFsse7ZjnduNT8ml-g-19">
          <mxGeometry x="120" y="60" width="60" height="80" as="geometry" />
        </mxCell>
        <mxCell id="-PqFsse7ZjnduNT8ml-g-25" value="Events" style="shape=parallelogram;perimeter=parallelogramPerimeter;whiteSpace=wrap;html=1;fixedSize=1;" vertex="1" parent="-PqFsse7ZjnduNT8ml-g-19">
          <mxGeometry x="250" y="85" width="95" height="30" as="geometry" />
        </mxCell>
        <mxCell id="-PqFsse7ZjnduNT8ml-g-24" value="&lt;i&gt;Transactions&lt;/i&gt;" style="edgeStyle=orthogonalEdgeStyle;rounded=0;orthogonalLoop=1;jettySize=auto;html=1;" edge="1" parent="1" source="-PqFsse7ZjnduNT8ml-g-15" target="-PqFsse7ZjnduNT8ml-g-22">
          <mxGeometry relative="1" as="geometry">
            <Array as="points" />
          </mxGeometry>
        </mxCell>
        <mxCell id="-PqFsse7ZjnduNT8ml-g-31" value="&lt;i&gt;Exposes&lt;/i&gt;" style="edgeStyle=orthogonalEdgeStyle;rounded=0;orthogonalLoop=1;jettySize=auto;html=1;" edge="1" parent="1" source="-PqFsse7ZjnduNT8ml-g-27" target="-PqFsse7ZjnduNT8ml-g-30">
          <mxGeometry relative="1" as="geometry" />
        </mxCell>
        <mxCell id="-PqFsse7ZjnduNT8ml-g-27" value="The Graph" style="shape=cube;whiteSpace=wrap;html=1;boundedLbl=1;backgroundOutline=1;darkOpacity=0.05;darkOpacity2=0.1;size=10;" vertex="1" parent="1">
          <mxGeometry x="620" y="370" width="120" height="80" as="geometry" />
        </mxCell>
        <mxCell id="-PqFsse7ZjnduNT8ml-g-29" value="&lt;i&gt;Indexed&lt;/i&gt;" style="edgeStyle=orthogonalEdgeStyle;rounded=0;orthogonalLoop=1;jettySize=auto;html=1;" edge="1" parent="1" source="-PqFsse7ZjnduNT8ml-g-25" target="-PqFsse7ZjnduNT8ml-g-27">
          <mxGeometry relative="1" as="geometry" />
        </mxCell>
        <mxCell id="-PqFsse7ZjnduNT8ml-g-30" value="GraphQL API" style="rounded=0;whiteSpace=wrap;html=1;" vertex="1" parent="1">
          <mxGeometry x="540" y="500" width="120" height="40" as="geometry" />
        </mxCell>
        <mxCell id="-PqFsse7ZjnduNT8ml-g-33" value="&lt;i&gt;Queries&lt;/i&gt;" style="edgeStyle=orthogonalEdgeStyle;rounded=0;orthogonalLoop=1;jettySize=auto;html=1;" edge="1" parent="1" source="-PqFsse7ZjnduNT8ml-g-15" target="-PqFsse7ZjnduNT8ml-g-30">
          <mxGeometry relative="1" as="geometry">
            <Array as="points">
              <mxPoint x="340" y="520" />
            </Array>
          </mxGeometry>
        </mxCell>
        <mxCell id="-PqFsse7ZjnduNT8ml-g-38" value="" style="group" vertex="1" connectable="0" parent="1">
          <mxGeometry x="170" y="400" width="44.03" height="65" as="geometry" />
        </mxCell>
        <mxCell id="-PqFsse7ZjnduNT8ml-g-37" value="Server" style="aspect=fixed;perimeter=ellipsePerimeter;html=1;align=center;shadow=0;dashed=0;spacingTop=3;image;image=img/lib/active_directory/generic_server.svg;" vertex="1" parent="-PqFsse7ZjnduNT8ml-g-38">
          <mxGeometry width="36.4" height="65" as="geometry" />
        </mxCell>
        <mxCell id="-PqFsse7ZjnduNT8ml-g-36" value="" style="aspect=fixed;perimeter=ellipsePerimeter;html=1;align=center;shadow=0;dashed=0;spacingTop=3;image;image=img/lib/active_directory/key.svg;" vertex="1" parent="-PqFsse7ZjnduNT8ml-g-38">
          <mxGeometry x="17" y="45" width="27.03" height="20" as="geometry" />
        </mxCell>
        <mxCell id="-PqFsse7ZjnduNT8ml-g-39" value="&lt;i&gt;Transactions&lt;/i&gt;" style="edgeStyle=orthogonalEdgeStyle;rounded=0;orthogonalLoop=1;jettySize=auto;html=1;" edge="1" parent="1" source="-PqFsse7ZjnduNT8ml-g-37" target="-PqFsse7ZjnduNT8ml-g-22">
          <mxGeometry relative="1" as="geometry">
            <Array as="points">
              <mxPoint x="140" y="433" />
              <mxPoint x="140" y="260" />
            </Array>
          </mxGeometry>
        </mxCell>
        <mxCell id="-PqFsse7ZjnduNT8ml-g-41" value="&lt;i&gt;Queries&lt;/i&gt;" style="edgeStyle=orthogonalEdgeStyle;rounded=0;orthogonalLoop=1;jettySize=auto;html=1;entryX=0.5;entryY=1;entryDx=0;entryDy=0;" edge="1" parent="1" source="-PqFsse7ZjnduNT8ml-g-37" target="-PqFsse7ZjnduNT8ml-g-30">
          <mxGeometry relative="1" as="geometry">
            <Array as="points">
              <mxPoint x="188" y="560" />
              <mxPoint x="600" y="560" />
            </Array>
          </mxGeometry>
        </mxCell>
        <mxCell id="-PqFsse7ZjnduNT8ml-g-43" value="&lt;i&gt;Interacts&lt;/i&gt;" style="edgeStyle=orthogonalEdgeStyle;rounded=0;orthogonalLoop=1;jettySize=auto;html=1;" edge="1" parent="1" source="-PqFsse7ZjnduNT8ml-g-42" target="-PqFsse7ZjnduNT8ml-g-15">
          <mxGeometry relative="1" as="geometry" />
        </mxCell>
        <mxCell id="-PqFsse7ZjnduNT8ml-g-42" value="User" style="verticalLabelPosition=bottom;html=1;verticalAlign=top;align=center;strokeColor=none;fillColor=#00BEF2;shape=mxgraph.azure.user;" vertex="1" parent="1">
          <mxGeometry x="512.5" y="385" width="47.5" height="50" as="geometry" />
        </mxCell>
      </root>
    </mxGraphModel>
  </diagram>
</mxfile>
